<?xml version="1.0" encoding="utf-8"?>
<!-- Generator: Adobe Illustrator 18.1.1, SVG Export Plug-In . SVG Version: 6.00 Build 0)  -->
<!DOCTYPE svg PUBLIC "-//W3C//DTD SVG 1.1//EN" "http://www.w3.org/Graphics/SVG/1.1/DTD/svg11.dtd">
<svg version="1.1" id="Layer_1" xmlns="http://www.w3.org/2000/svg" xmlns:xlink="http://www.w3.org/1999/xlink" x="0px" y="0px"
	 viewBox="0 0 128 128" enable-background="new 0 0 128 128" xml:space="preserve">
<g>
	<defs>
		<path id="SVGID_1_" d="M64,105.9c-23.4,0.3-42.5-18.4-42.8-41.8C20.9,40.8,39.6,21.6,63,21.3c23.4-0.3,42.5,18.4,42.8,41.8
			C106.1,86.5,87.4,105.7,64,105.9"/>
	</defs>
	<clipPath id="SVGID_2_">
		<use xlink:href="#SVGID_1_"  overflow="visible"/>
	</clipPath>
	<g clip-path="url(#SVGID_2_)">
		<defs>
			<rect id="SVGID_3_" x="21" y="10" width="96" height="96"/>
		</defs>
		<clipPath id="SVGID_4_">
			<use xlink:href="#SVGID_3_"  overflow="visible"/>
		</clipPath>
		<rect x="13.3" y="13.5" clip-path="url(#SVGID_4_)" fill="#FFDE44" width="100.3" height="100.3"/>
	</g>
</g>
<g>
	<defs>
		<polyline id="SVGID_5_" points="120.5,85.5 120.5,79.8 79.6,79.9 79.6,56 119.5,56 119.4,50.2 79.5,50.3 79.5,18.8 73.7,18.8 
			73.8,50.3 55.4,50.3 55.3,-6.3 49.6,-6.3 49.7,50.3 11.5,50.4 11.5,56.2 73.8,56 73.9,79.9 6.8,80 6.8,85.8 73.9,85.6 73.9,110 
			79.7,110 79.6,85.6 120.5,85.5 		"/>
	</defs>
	<clipPath id="SVGID_6_">
		<use xlink:href="#SVGID_5_"  overflow="visible"/>
	</clipPath>
	<g clip-path="url(#SVGID_6_)">
		<defs>
			<rect id="SVGID_7_" x="21" y="10" width="96" height="96"/>
		</defs>
		<clipPath id="SVGID_8_">
			<use xlink:href="#SVGID_7_"  overflow="visible"/>
		</clipPath>
		<g clip-path="url(#SVGID_8_)" enable-background="new    ">
			<g>
				<defs>
					<rect id="SVGID_9_" x="21" y="21" width="86.6" height="85"/>
				</defs>
				<clipPath id="SVGID_10_">
					<use xlink:href="#SVGID_9_"  overflow="visible"/>
				</clipPath>
				<g clip-path="url(#SVGID_10_)">
					<defs>
						<path id="SVGID_11_" d="M64.1,106c-23.4,0.3-42.5-18.4-42.8-41.8s18.4-42.5,41.8-42.8c23.4-0.3,42.5,18.4,42.8,41.8
							C106.2,86.5,87.5,105.7,64.1,106"/>
					</defs>
					<clipPath id="SVGID_12_">
						<use xlink:href="#SVGID_11_"  overflow="visible"/>
					</clipPath>
					<g clip-path="url(#SVGID_12_)">
						<defs>
							<rect id="SVGID_13_" x="21" y="10" width="96" height="96"/>
						</defs>
						<clipPath id="SVGID_14_">
							<use xlink:href="#SVGID_13_"  overflow="visible"/>
						</clipPath>
						<rect x="13.4" y="13.5" clip-path="url(#SVGID_14_)" fill="#EEEEEE" width="100.3" height="100.3"/>
					</g>
				</g>
			</g>
		</g>
	</g>
</g>
<g>
	<defs>
		<polyline id="SVGID_15_" points="79.4,16.4 79.5,50.3 109.4,50.2 79.4,16.4 		"/>
	</defs>
	<clipPath id="SVGID_16_">
		<use xlink:href="#SVGID_15_"  overflow="visible"/>
	</clipPath>
	<g clip-path="url(#SVGID_16_)">
		<defs>
			<rect id="SVGID_17_" x="21" y="10" width="96" height="96"/>
		</defs>
		<clipPath id="SVGID_18_">
			<use xlink:href="#SVGID_17_"  overflow="visible"/>
		</clipPath>
		<g clip-path="url(#SVGID_18_)" enable-background="new    ">
			<g>
				<defs>
					<rect id="SVGID_19_" x="79.2" y="21" width="28.3" height="29.9"/>
				</defs>
				<clipPath id="SVGID_20_">
					<use xlink:href="#SVGID_19_"  overflow="visible"/>
				</clipPath>
				<g clip-path="url(#SVGID_20_)">
					<defs>
						<path id="SVGID_21_" d="M64.3,106.3C41,106.6,21.8,87.9,21.5,64.5C21.3,41.1,40,22,63.3,21.7c23.4-0.3,42.5,18.4,42.8,41.8
							C106.4,86.9,87.7,106,64.3,106.3"/>
					</defs>
					<clipPath id="SVGID_22_">
						<use xlink:href="#SVGID_21_"  overflow="visible"/>
					</clipPath>
					<g clip-path="url(#SVGID_22_)">
						<defs>
							<rect id="SVGID_23_" x="79.2" y="16.3" width="31.5" height="34.6"/>
						</defs>
						<clipPath id="SVGID_24_">
							<use xlink:href="#SVGID_23_"  overflow="visible"/>
						</clipPath>
						<rect x="13.7" y="13.8" clip-path="url(#SVGID_24_)" fill="#20A362" width="100.3" height="100.3"/>
					</g>
				</g>
			</g>
		</g>
	</g>
</g>
<g>
	<defs>
		<path id="SVGID_25_" d="M73.9,85.6l-48.2,0.1l10.9,15.8c0,0,26,12.7,26.3,12.6c0.3-0.1,11-9.5,11-9.5L73.9,85.6"/>
	</defs>
	<clipPath id="SVGID_26_">
		<use xlink:href="#SVGID_25_"  overflow="visible"/>
	</clipPath>
	<g clip-path="url(#SVGID_26_)">
		<defs>
			<rect id="SVGID_27_" x="21" y="10" width="96" height="96"/>
		</defs>
		<clipPath id="SVGID_28_">
			<use xlink:href="#SVGID_27_"  overflow="visible"/>
		</clipPath>
		<g clip-path="url(#SVGID_28_)" enable-background="new    ">
			<g>
				<defs>
					<rect id="SVGID_29_" x="25.7" y="85.5" width="48.8" height="20.5"/>
				</defs>
				<clipPath id="SVGID_30_">
					<use xlink:href="#SVGID_29_"  overflow="visible"/>
				</clipPath>
				<g clip-path="url(#SVGID_30_)">
					<defs>
						<path id="SVGID_31_" d="M64,105.9c-23.4,0.3-42.5-18.4-42.8-41.8S39.7,21.6,63,21.3c23.4-0.3,42.5,18.4,42.8,41.8
							S87.4,105.6,64,105.9"/>
					</defs>
					<clipPath id="SVGID_32_">
						<use xlink:href="#SVGID_31_"  overflow="visible"/>
					</clipPath>
					<g clip-path="url(#SVGID_32_)">
						<defs>
							<rect id="SVGID_33_" x="25.7" y="85.5" width="48.8" height="20.5"/>
						</defs>
						<clipPath id="SVGID_34_">
							<use xlink:href="#SVGID_33_"  overflow="visible"/>
						</clipPath>
						<rect x="13.3" y="13.4" clip-path="url(#SVGID_34_)" fill="#3F8CF4" width="100.3" height="100.3"/>
					</g>
				</g>
			</g>
		</g>
	</g>
</g>
<g>
	<defs>
		<rect id="SVGID_35_" x="21" y="10" width="96" height="96"/>
	</defs>
	<clipPath id="SVGID_36_">
		<use xlink:href="#SVGID_35_"  overflow="visible"/>
	</clipPath>
	<g clip-path="url(#SVGID_36_)" enable-background="new    ">
		<g>
			<defs>
				<rect id="SVGID_37_" x="21" y="21" width="29.9" height="29.9"/>
			</defs>
			<clipPath id="SVGID_38_">
				<use xlink:href="#SVGID_37_"  overflow="visible"/>
			</clipPath>
			<g clip-path="url(#SVGID_38_)">
				<defs>
					<path id="SVGID_39_" d="M64,106c-23.4,0.3-42.5-18.4-42.8-41.8S39.6,21.6,63,21.4c23.4-0.3,42.5,18.4,42.8,41.8
						S87.4,105.7,64,106"/>
				</defs>
				<clipPath id="SVGID_40_">
					<use xlink:href="#SVGID_39_"  overflow="visible"/>
				</clipPath>
				<g clip-path="url(#SVGID_40_)">
					<defs>
						<rect id="SVGID_41_" x="21" y="13.1" width="29.9" height="37.8"/>
					</defs>
					<clipPath id="SVGID_42_">
						<use xlink:href="#SVGID_41_"  overflow="visible"/>
					</clipPath>
					<rect x="13.3" y="13.5" clip-path="url(#SVGID_42_)" fill="#20A362" width="100.3" height="100.3"/>
				</g>
			</g>
		</g>
	</g>
</g>
<polyline fill-rule="evenodd" clip-rule="evenodd" fill="none" points="49.7,23.3 49.7,50.4 17.7,50.4 22.3,32.1 31.3,13.5 
	40.2,13.9 46.9,17.8 49.7,23.3 "/>
<g>
	<defs>
		<rect id="SVGID_43_" x="21" y="10" width="96" height="96"/>
	</defs>
	<clipPath id="SVGID_44_">
		<use xlink:href="#SVGID_43_"  overflow="visible"/>
	</clipPath>
	<g clip-path="url(#SVGID_44_)" enable-background="new    ">
		<g>
			<defs>
				<rect id="SVGID_45_" x="57.2" y="17.9" width="51.9" height="45.6"/>
			</defs>
			<clipPath id="SVGID_46_">
				<use xlink:href="#SVGID_45_"  overflow="visible"/>
			</clipPath>
			<g clip-path="url(#SVGID_46_)">
				<defs>
					<rect id="SVGID_47_" x="58.7" y="18" width="50.2" height="44.2"/>
				</defs>
				<clipPath id="SVGID_48_">
					<use xlink:href="#SVGID_47_"  overflow="visible"/>
				</clipPath>
				<g clip-path="url(#SVGID_48_)">
					<defs>
						<rect id="SVGID_49_" x="43" y="13.1" width="66.1" height="50.4"/>
					</defs>
					<clipPath id="SVGID_50_">
						<use xlink:href="#SVGID_49_"  overflow="visible"/>
					</clipPath>
					<rect x="50.9" y="10.2" clip-path="url(#SVGID_50_)" fill="#DC493C" width="65.9" height="60"/>
				</g>
			</g>
			<g clip-path="url(#SVGID_46_)">
				<defs>
					<rect id="SVGID_51_" x="74.3" y="18.1" width="5.7" height="44.2"/>
				</defs>
				<clipPath id="SVGID_52_">
					<use xlink:href="#SVGID_51_"  overflow="visible"/>
				</clipPath>
				<g clip-path="url(#SVGID_52_)">
					<defs>
						<rect id="SVGID_53_" x="43" y="13.1" width="66.1" height="50.4"/>
					</defs>
					<clipPath id="SVGID_54_">
						<use xlink:href="#SVGID_53_"  overflow="visible"/>
					</clipPath>
					<rect x="66.4" y="10.2" clip-path="url(#SVGID_54_)" fill="#812A28" width="21.5" height="59.9"/>
				</g>
			</g>
			<g clip-path="url(#SVGID_46_)">
				<defs>
					<rect id="SVGID_55_" x="58.8" y="50.4" width="50.1" height="5.7"/>
				</defs>
				<clipPath id="SVGID_56_">
					<use xlink:href="#SVGID_55_"  overflow="visible"/>
				</clipPath>
				<g clip-path="url(#SVGID_56_)">
					<defs>
						<rect id="SVGID_57_" x="43" y="13.1" width="66.1" height="50.4"/>
					</defs>
					<clipPath id="SVGID_58_">
						<use xlink:href="#SVGID_57_"  overflow="visible"/>
					</clipPath>
					<rect x="50.9" y="42.5" clip-path="url(#SVGID_58_)" fill="#812A28" width="65.9" height="21.5"/>
				</g>
			</g>
		</g>
	</g>
</g>
<path fill-rule="evenodd" clip-rule="evenodd" fill="none" d="M43.2,61.5V15c0-0.4,0.3-0.8,0.8-0.8h64.2c0.4,0,0.8,0.3,0.8,0.8v46.5
	c0,0.4-0.3,0.8-0.8,0.8H44C43.5,62.3,43.2,61.9,43.2,61.5z"/>
<path fill="none" stroke="#812A28" stroke-width="3.5001" stroke-miterlimit="10" d="M64.1,66.8H53.3v-10 M102.7,66.9h10.7v-10
	 M64.5,13.3H53.8v10 M103.1,13.3h10.7v10"/>
<rect x="21" y="10" fill="none" width="96" height="96"/>
<rect x="21" y="10" fill="none" width="96" height="96"/>
</svg>
